<svg id="Group_2718" data-name="Group 2718" xmlns="http://www.w3.org/2000/svg" xmlns:xlink="http://www.w3.org/1999/xlink" width="22.253" height="42.031" viewBox="0 0 22.253 42.031">
  <defs>
    <linearGradient id="linear-gradient" x1="0.5" x2="0.5" y2="1" gradientUnits="objectBoundingBox">
      <stop offset="0" stop-color="#f93d63"/>
      <stop offset="1" stop-color="#ce0404"/>
    </linearGradient>
  </defs>
  <g id="_10-drink" data-name="10-drink" transform="translate(0 12.098)">
    <g id="Flat" transform="translate(0 0)">
      <path id="Path_18837" data-name="Path 18837" d="M60.859,40.533A1.575,1.575,0,0,0,59.677,40h-19.1a1.575,1.575,0,0,0-1.563,1.771L42.36,68.553a1.575,1.575,0,0,0,1.563,1.38H56.33a1.575,1.575,0,0,0,1.563-1.38l3.348-26.782A1.575,1.575,0,0,0,60.859,40.533Z" transform="translate(-39 -40)" fill="#e6f9fe"/>
      <path id="Path_18838" data-name="Path 18838" d="M46.889,68.553,43.542,41.771A1.575,1.575,0,0,1,45.1,40H40.576a1.575,1.575,0,0,0-1.563,1.771L42.36,68.553a1.575,1.575,0,0,0,1.563,1.38h4.529a1.575,1.575,0,0,1-1.563-1.38Z" transform="translate(-39 -40)" fill="#ccf2fe"/>
      <path id="Path_18839" data-name="Path 18839" d="M42.938,80l2.584,20.676a1.575,1.575,0,0,0,1.563,1.38H59.492a1.575,1.575,0,0,0,1.563-1.38L63.64,80Z" transform="translate(-42.163 -72.123)" fill="url(#linear-gradient)"/>
      <g id="Group_2715" data-name="Group 2715" transform="translate(4.327 10.76)">
        <circle id="Ellipse_18" data-name="Ellipse 18" cx="1.5" cy="1.5" r="1.5" transform="translate(0.363 0.173)" fill="#fff"/>
        <ellipse id="Ellipse_19" data-name="Ellipse 19" cx="1.5" cy="1" rx="1.5" ry="1" transform="translate(5.363 13.173)" fill="#fff"/>
        <ellipse id="Ellipse_20" data-name="Ellipse 20" cx="1" cy="2" rx="1" ry="2" transform="translate(10.363 6.173)" fill="#fff"/>
      </g>
    </g>
  </g>
  <g id="Group_2717" data-name="Group 2717" transform="translate(4.642 0)">
    <path id="Path_18845" data-name="Path 18845" d="M50.326,6.977H48V5.814a3.492,3.492,0,0,1,3.488-3.488h2.326a1.164,1.164,0,0,0,1.163-1.163V0H57.3V1.163a3.492,3.492,0,0,1-3.488,3.488H51.488a1.164,1.164,0,0,0-1.163,1.163Z" transform="translate(-48 0)" fill="#ff0005"/>
    <path id="Path_18846" data-name="Path 18846" d="M74.326,30.977H72V29.814a3.492,3.492,0,0,1,3.488-3.488h2.326a1.164,1.164,0,0,0,1.163-1.163V24H81.3v1.163a3.492,3.492,0,0,1-3.488,3.488H75.488a1.164,1.164,0,0,0-1.163,1.163Z" transform="translate(-68.512 -20.511)" fill="#f6395d"/>
  </g>
</svg>
