<svg id="Group_2719" data-name="Group 2719" xmlns="http://www.w3.org/2000/svg" xmlns:xlink="http://www.w3.org/1999/xlink" width="22.009" height="41.571" viewBox="0 0 22.009 41.571">
  <defs>
    <linearGradient id="linear-gradient" x1="0.5" x2="0.5" y2="1" gradientUnits="objectBoundingBox">
      <stop offset="0" stop-color="#ffcd98"/>
      <stop offset="1" stop-color="#e58216"/>
    </linearGradient>
  </defs>
  <g id="_10-drink" data-name="10-drink" transform="translate(0 11.966)">
    <g id="Flat" transform="translate(0 0)">
      <path id="Path_18837" data-name="Path 18837" d="M60.62,40.527A1.558,1.558,0,0,0,59.451,40H40.558a1.558,1.558,0,0,0-1.546,1.751L42.323,68.24a1.558,1.558,0,0,0,1.546,1.365H56.14a1.558,1.558,0,0,0,1.546-1.365L61,41.751A1.558,1.558,0,0,0,60.62,40.527Z" transform="translate(-39 -40)" fill="#e6f9fe"/>
      <path id="Path_18838" data-name="Path 18838" d="M46.8,68.24,43.492,41.751A1.558,1.558,0,0,1,45.038,40h-4.48a1.558,1.558,0,0,0-1.546,1.751L42.323,68.24a1.558,1.558,0,0,0,1.546,1.365h4.48A1.558,1.558,0,0,1,46.8,68.24Z" transform="translate(-39 -40)" fill="#ccf2fe"/>
      <path id="Path_18839" data-name="Path 18839" d="M42.938,80l2.556,20.449a1.558,1.558,0,0,0,1.546,1.365H59.311a1.558,1.558,0,0,0,1.546-1.365L63.413,80Z" transform="translate(-42.171 -72.209)" fill="url(#linear-gradient)"/>
      <g id="Group_2715" data-name="Group 2715" transform="translate(5.078 10.643)">
        <ellipse id="Ellipse_18" data-name="Ellipse 18" cx="1" cy="1.5" rx="1" ry="1.5" transform="translate(0.373 0.193)" fill="#fff"/>
        <circle id="Ellipse_19" data-name="Ellipse 19" cx="1.5" cy="1.5" r="1.5" transform="translate(4.373 12.193)" fill="#fff"/>
        <ellipse id="Ellipse_20" data-name="Ellipse 20" cx="1" cy="2" rx="1" ry="2" transform="translate(9.373 6.193)" fill="#fff"/>
      </g>
    </g>
  </g>
  <g id="Group_2716" data-name="Group 2716" transform="translate(4.591 0)">
    <path id="Path_18845" data-name="Path 18845" d="M50.3,6.9H48V5.75A3.454,3.454,0,0,1,51.45,2.3h2.3A1.151,1.151,0,0,0,54.9,1.15V0h2.3V1.15A3.454,3.454,0,0,1,53.75,4.6h-2.3A1.151,1.151,0,0,0,50.3,5.75Z" transform="translate(-48)" fill="#e88c28"/>
    <path id="Path_18846" data-name="Path 18846" d="M74.3,30.9H72V29.75a3.454,3.454,0,0,1,3.45-3.45h2.3a1.151,1.151,0,0,0,1.15-1.15V24h2.3v1.15a3.454,3.454,0,0,1-3.45,3.45h-2.3a1.151,1.151,0,0,0-1.15,1.15Z" transform="translate(-68.55 -20.55)" fill="#f6b46c"/>
  </g>
</svg>
